<svg width="69" height="56" viewBox="0 0 69 56" fill="none" xmlns="http://www.w3.org/2000/svg">
<g clip-path="url(#clip0_150_14)">
<path d="M38.7487 16.87L37.4524 15.87C37.2498 15.7043 36.9907 15.626 36.7313 15.6522C36.4719 15.6784 36.2333 15.807 36.0672 16.01L18.1277 36.83L18.4047 37.14L22.8476 33C22.6995 32.9398 22.577 32.8291 22.5013 32.6871C22.4256 32.5451 22.4016 32.3807 22.4333 32.2227C22.4651 32.0646 22.5506 31.9227 22.6751 31.8218C22.7996 31.7208 22.9551 31.6671 23.1147 31.67C23.2586 31.67 23.3987 31.7166 23.5145 31.803C23.6303 31.8894 23.7156 32.011 23.7579 32.15L29.6157 26.66C29.7054 26.587 29.8171 26.5472 29.9323 26.5472C30.0475 26.5472 30.1592 26.587 30.2489 26.66L30.5458 26.88C30.6462 26.9528 30.77 26.9849 30.8926 26.9701C31.0153 26.9553 31.1281 26.8946 31.2088 26.8L38.8674 18.12C38.9488 18.0339 39.0109 17.931 39.0495 17.8184C39.088 17.7058 39.1021 17.5862 39.0909 17.4676C39.0796 17.349 39.0432 17.2343 38.9842 17.1312C38.9251 17.028 38.8448 16.939 38.7487 16.87Z" fill="#303030"/>
<path d="M47.1792 22.73C43.2534 25.553 38.8554 27.6364 34.1971 28.88C29.5736 30.0683 24.8426 30.7786 20.077 31C20.173 31.7102 20.3455 32.4077 20.5916 33.08C23.283 35.54 43.5477 31.34 47.5057 26.48C48.3468 25.47 47.1792 22.73 47.1792 22.73ZM23.1148 33C22.9817 33 22.8516 32.9601 22.7409 32.8854C22.6303 32.8107 22.5441 32.7045 22.4931 32.5802C22.4422 32.4559 22.4289 32.3192 22.4548 32.1873C22.4808 32.0554 22.5449 31.9342 22.639 31.8391C22.7331 31.744 22.853 31.6793 22.9835 31.653C23.114 31.6268 23.2493 31.6403 23.3723 31.6917C23.4952 31.7432 23.6003 31.8304 23.6742 31.9422C23.7482 32.054 23.7876 32.1855 23.7876 32.32C23.789 32.4097 23.7725 32.4987 23.7391 32.5818C23.7058 32.6649 23.6563 32.7404 23.5935 32.8038C23.5308 32.8672 23.4561 32.9173 23.3738 32.951C23.2916 32.9847 23.2035 33.0013 23.1148 33Z" fill="#303030"/>
<path d="M3.96831 21.2899L4.12663 20.5999L6.69931 21.1899C6.91155 21.5861 7.04279 22.0214 7.08521 22.4699C7.13431 22.945 7.10421 23.425 6.99615 23.8899C6.86807 24.5352 6.57464 25.1352 6.14519 25.6299C5.73662 26.097 5.2098 26.4428 4.62138 26.6299C4.01491 26.8189 3.36987 26.8431 2.75124 26.6999C2.13124 26.5646 1.55976 26.2603 1.09879 25.8199C0.644878 25.3969 0.318936 24.8526 0.158772 24.2499C-0.0189069 23.5954 -0.0189069 22.9045 0.158772 22.2499C0.26512 21.76 0.456041 21.2929 0.722781 20.8699C0.975239 20.4853 1.31434 20.1665 1.71227 19.9399L2.06849 20.4899C1.72742 20.7016 1.43464 20.9839 1.20949 21.3183C0.984347 21.6527 0.831949 22.0316 0.762361 22.4299C0.639651 22.9473 0.64987 23.4877 0.792046 23.9999C0.925003 24.4863 1.18873 24.9259 1.55395 25.2699C1.92935 25.6367 2.39901 25.8896 2.90956 25.9999C3.40462 26.1404 3.92841 26.1404 4.42348 25.9999C4.89773 25.8417 5.32369 25.5628 5.66034 25.1899C6.00631 24.7873 6.24473 24.3019 6.35298 23.7799C6.51579 23.1468 6.47419 22.4776 6.23424 21.8699L3.96831 21.2899Z" fill="#303030"/>
<path d="M9.56866 15.0001L7.26314 18.1101L8.25263 19.9001L7.79747 20.5201L4.13635 13.7701L4.56183 13.1801L12.0127 14.8001L11.5476 15.4201L9.56866 15.0001ZM8.91559 14.8401L4.95763 13.9401L6.93661 17.5301L8.91559 14.8401Z" fill="#303030"/>
<path d="M8.91553 8.54998L9.50922 8.09998L13.2792 13.2L16.3862 10.85L16.7622 11.36L13.0714 14.15L8.91553 8.54998Z" fill="#303030"/>
<path d="M15.1493 4.37996L15.8123 4.07996L18.4245 9.85996L21.957 8.23996L22.2143 8.81996L18.0188 10.75L15.1493 4.37996Z" fill="#303030"/>
<path d="M28.1908 6.68003L28.3392 7.31003L23.5699 8.44003L21.9867 1.62003L26.6175 0.530029L26.756 1.15003L22.7981 2.08003L23.3621 4.50003L26.8451 3.67003L26.9935 4.29003L23.5006 5.11003L24.0943 7.64003L28.1908 6.68003Z" fill="#303030"/>
<path d="M34.9886 6.92997L33.3361 4.72997C33.1516 4.74029 32.9666 4.74029 32.782 4.72997L30.9218 4.78997L30.9911 7.00997H30.2588L30.0312 0.00996866L32.6633 -3.1339e-05C33.4075 -0.0694894 34.1516 0.132721 34.761 0.569969C35.0178 0.778962 35.2243 1.04418 35.3648 1.3456C35.5054 1.64702 35.5764 1.97678 35.5724 2.30997C35.6013 2.80416 35.473 3.29473 35.2063 3.70997C34.9219 4.10853 34.5202 4.40603 34.0585 4.55997L35.7901 6.89997L34.9886 6.92997ZM34.296 3.63997C34.4738 3.47531 34.6118 3.27154 34.6993 3.04439C34.7868 2.81725 34.8215 2.57281 34.8006 2.32997C34.8057 2.08584 34.7558 1.84374 34.6547 1.62198C34.5535 1.40022 34.4038 1.20461 34.2168 1.04997C33.7607 0.737448 33.2123 0.592707 32.6633 0.639969L30.7833 0.709969L30.902 4.20997L32.7425 4.14997C33.3037 4.17096 33.8541 3.99026 34.296 3.63997Z" fill="#303030"/>
<path d="M40.2231 5.07L39.8669 7.46L39.1445 7.35L39.5106 5L37.4624 0L38.2342 0.12L39.9856 4.38L42.9541 0.85L43.6467 1L40.2231 5.07Z" fill="#303030"/>
<path d="M50.0091 4.65005L50.8699 5.78005L50.4939 6.08005L49.6331 4.92005L49.0888 6.23005L48.6732 6.05005L49.2274 4.74005L47.8025 4.93005V4.45005L49.2076 4.29005L48.3368 3.16005L48.7227 2.86005L49.4846 4.00005L50.019 2.68005L50.4444 2.86005L49.9398 4.20005L51.3647 4.00005V4.49005L50.0091 4.65005Z" fill="#303030"/>
<path d="M53.314 12.71C53.0804 12.346 52.9346 11.9315 52.8885 11.5L53.4723 11.24C53.5161 11.6364 53.6444 12.0185 53.8484 12.36C54.0694 12.743 54.3578 13.0819 54.6993 13.36C55.052 13.7013 55.5021 13.9217 55.9857 13.99C56.1604 14.0064 56.3364 13.9794 56.4985 13.9115C56.6606 13.8435 56.8038 13.7366 56.9158 13.6C56.9978 13.5085 57.0604 13.4009 57.0996 13.284C57.1387 13.167 57.1536 13.0431 57.1434 12.92C57.1106 12.6763 57.0299 12.4417 56.9059 12.23C56.7199 11.9231 56.5185 11.626 56.3023 11.34C56.0389 10.9912 55.8008 10.6236 55.5899 10.24C55.4287 9.95296 55.3403 9.63003 55.3326 9.30004C55.3319 8.92946 55.4697 8.5723 55.7185 8.30004C55.9341 8.03617 56.2187 7.83869 56.5398 7.73004C56.8986 7.62531 57.2793 7.62531 57.6381 7.73004C58.1004 7.88282 58.5277 8.12763 58.8948 8.45004C59.1994 8.70611 59.4689 9.00205 59.6962 9.33004C59.9064 9.6342 60.0637 9.97239 60.1613 10.33L59.5973 10.63C59.4989 10.2967 59.3522 9.97991 59.1619 9.69004C58.9724 9.43118 58.7494 9.19913 58.499 9.00004C58.1515 8.66028 57.7028 8.44587 57.2225 8.39004C57.046 8.37512 56.8686 8.40478 56.7062 8.47635C56.5439 8.54792 56.4017 8.65915 56.2924 8.80004C56.2082 8.89013 56.1443 8.99753 56.105 9.11489C56.0658 9.23226 56.052 9.35681 56.0648 9.48004C56.088 9.73221 56.1693 9.97538 56.3023 10.19C56.4408 10.42 56.6387 10.72 56.9059 11.08C57.1707 11.4208 57.4089 11.7819 57.6183 12.16C57.783 12.4462 57.8748 12.7692 57.8855 13.1C57.8862 13.4706 57.7483 13.8278 57.4996 14.1C57.2831 14.3675 56.9943 14.5656 56.6684 14.67C56.3103 14.7793 55.9282 14.7793 55.5701 14.67C55.1046 14.5177 54.674 14.2729 54.3035 13.95C53.9041 13.5987 53.5691 13.179 53.314 12.71Z" fill="#303030"/>
<path d="M63.2683 14.17L61.8731 12.17L62.3876 11.8L65.6035 16.44L65.0889 16.81L63.6938 14.81L58.5286 18.46L58.113 17.85L63.2683 14.17Z" fill="#303030"/>
<path d="M61.0518 22.39C61.2284 21.7856 61.5716 21.2445 62.0413 20.83C62.5007 20.4141 63.0604 20.1279 63.664 20C64.2794 19.8572 64.9211 19.8814 65.5243 20.07C66.1064 20.2645 66.6283 20.6092 67.0382 21.07C67.4644 21.5656 67.7545 22.1656 67.8793 22.81C68.0432 23.4426 68.0432 24.1073 67.8793 24.74C67.6978 25.3421 67.3554 25.8819 66.8898 26.3C66.4176 26.727 65.8442 27.0233 65.2251 27.16C64.6061 27.2967 63.9626 27.2691 63.3573 27.08C62.7707 26.8949 62.2465 26.5487 61.8434 26.08C61.419 25.587 61.1291 24.9907 61.0023 24.35C60.8511 23.7033 60.8682 23.028 61.0518 22.39ZM62.348 25.57C62.6784 25.9502 63.1065 26.2306 63.5849 26.38C64.078 26.5245 64.599 26.5417 65.1004 26.4298C65.6017 26.318 66.0673 26.0808 66.4544 25.74C66.8196 25.4004 67.0893 24.9691 67.2361 24.49C67.3741 23.9841 67.3876 23.4517 67.2755 22.9393C67.1634 22.4269 66.9291 21.95 66.5929 21.55C66.248 21.1679 65.8068 20.8879 65.3165 20.74C64.8172 20.606 64.2919 20.606 63.7927 20.74C63.2889 20.8377 62.8225 21.0768 62.447 21.43C62.0784 21.7708 61.8082 22.2062 61.6653 22.69C61.5309 23.1977 61.5309 23.7322 61.6653 24.24C61.7736 24.7361 62.0091 25.1947 62.348 25.57Z" fill="#303030"/>
<path d="M60.2998 34L62.8626 33C62.8626 32.82 62.922 32.64 62.9714 32.45L63.4563 30.64L61.3586 30.09L61.5466 29.38L68.2355 31.19L67.5627 33.72C67.4111 34.4582 67.0042 35.1177 66.4149 35.58C66.1441 35.7701 65.8335 35.8942 65.5073 35.9428C65.1812 35.9914 64.8483 35.963 64.5348 35.86C64.0573 35.7553 63.6294 35.4892 63.3218 35.1056C63.0142 34.722 62.8452 34.2438 62.8428 33.75L60.1118 34.75L60.2998 34ZM63.6146 34.28C63.7305 34.4925 63.8878 34.6792 64.0769 34.8287C64.266 34.9782 64.4831 35.0876 64.7151 35.1502C64.9471 35.2128 65.1892 35.2273 65.4269 35.1929C65.6646 35.1585 65.8929 35.0759 66.0982 34.95C66.535 34.5955 66.833 34.0958 66.9393 33.54L67.4143 31.74L64.0599 30.83L63.5849 32.63C63.4024 33.1664 63.4129 33.7507 63.6146 34.28Z" fill="#303030"/>
<path d="M56.7476 40.44L56.2429 40.05L59.2114 36.1L64.7328 40.33L61.8632 44.16L61.3586 43.77L63.7828 40.54L61.8039 39.03L59.6369 41.92L59.1421 41.54L61.3586 38.65L59.3103 37.08L56.7476 40.44Z" fill="#303030"/>
<path d="M54.4321 48.41L53.0171 48.49V48.01L54.4321 48L53.6702 46.81L54.0561 46.56L54.8081 47.76L55.4216 46.42L55.847 46.65L55.1742 47.91L56.5892 47.83V48.32H55.1544L55.9163 49.51L55.5304 49.76L54.7784 48.56L54.1253 49.86L53.7097 49.62L54.4321 48.41Z" fill="#303030"/>
<path d="M41.5688 47.61L42.7661 48.28C42.9668 47.8904 43.2469 47.5481 43.588 47.2757C43.9292 47.0034 44.3235 46.8072 44.7451 46.7C45.1383 46.5761 45.5519 46.5319 45.9621 46.57C46.318 46.5976 46.66 46.722 46.9516 46.93C47.2153 47.1309 47.4092 47.4109 47.5057 47.73C47.625 48.1248 47.604 48.5493 47.4464 48.93C47.1981 49.4474 46.8633 49.9176 46.4569 50.32C46.7831 50.4972 47.0857 50.7156 47.3573 50.97C47.5439 51.1649 47.6828 51.4012 47.763 51.66C47.8137 51.8618 47.8169 52.0728 47.7722 52.276C47.7275 52.4792 47.6362 52.669 47.5057 52.83C47.2416 53.2147 46.8475 53.4885 46.3975 53.6C46.0024 53.7523 45.5656 53.7523 45.1705 53.6C44.9948 53.5237 44.8391 53.4072 44.7154 53.2597C44.5918 53.1122 44.5037 52.9377 44.4581 52.75C44.3544 52.4199 44.3791 52.0623 44.5274 51.75C44.7545 51.2954 45.0518 50.8802 45.408 50.52L43.0233 49.18C42.9323 49.651 42.9123 50.1331 42.964 50.61H42.3604C42.3197 50.0227 42.3868 49.4328 42.5583 48.87L41.3115 48.17L41.5688 47.61ZM43.2905 48.61L45.9127 50.08C46.2563 49.7484 46.5408 49.3593 46.7537 48.93C46.8624 48.6401 46.8624 48.32 46.7537 48.03C46.7089 47.8568 46.6221 47.6975 46.5011 47.5666C46.3802 47.4357 46.229 47.3372 46.0611 47.28C45.6503 47.1398 45.2053 47.1398 44.7945 47.28C44.4589 47.3695 44.1467 47.5323 43.88 47.7569C43.6133 47.9815 43.3986 48.2625 43.2509 48.58L43.2905 48.61ZM47.011 52.61C47.0756 52.4995 47.1162 52.3763 47.1298 52.2487C47.1435 52.1211 47.1299 51.9919 47.0901 51.87C47.0295 51.6726 46.9206 51.4937 46.7735 51.35C46.5216 51.1353 46.2461 50.9508 45.9522 50.8C45.6522 51.0998 45.3897 51.4357 45.1705 51.8C45.0509 52.0272 45.0226 52.2923 45.0914 52.54C45.1228 52.6545 45.1778 52.7609 45.2528 52.8522C45.3279 52.9436 45.4212 53.0178 45.5268 53.07C45.7787 53.166 46.0565 53.166 46.3085 53.07C46.5775 52.9975 46.8124 52.831 46.9714 52.6L47.011 52.61Z" fill="#303030"/>
<path d="M29.5068 55.3199L29.6454 48.3199H30.3479L30.2391 53.9199L33.0492 49.2599H33.3955L36.0276 53.9999L36.1265 48.4299H36.8291L36.7004 55.4299H36.0968L33.1877 50.1999L30.1104 55.3299L29.5068 55.3199Z" fill="#303030"/>
<path d="M26.0634 48C26.5159 48.4358 26.8397 48.9901 26.9986 49.601C27.1576 50.212 27.1456 50.8556 26.9638 51.46C26.8012 52.0789 26.4765 52.642 26.0238 53.09C25.5838 53.527 25.0323 53.8317 24.4307 53.97C23.7962 54.1147 23.1356 54.094 22.5111 53.91C21.8887 53.7564 21.3161 53.4429 20.8488 53C20.403 52.5697 20.0844 52.0227 19.9285 51.42C19.7764 50.7969 19.7876 50.1446 19.9611 49.5273C20.1347 48.91 20.4645 48.3491 20.918 47.9C21.3502 47.4641 21.89 47.1533 22.4814 47C23.1127 46.8557 23.7699 46.8763 24.3911 47.06C25.0199 47.221 25.5963 47.545 26.0634 48ZM22.6892 47.65C22.2052 47.7639 21.7628 48.0134 21.4128 48.37C21.0483 48.7369 20.7885 49.1963 20.6608 49.7C20.5228 50.2004 20.5228 50.7295 20.6608 51.23C20.7775 51.7169 21.0279 52.1606 21.3831 52.51C21.7556 52.8782 22.2157 53.1433 22.7189 53.28C23.2221 53.4095 23.7494 53.4095 24.2526 53.28C24.737 53.1596 25.181 52.9111 25.539 52.56C25.9015 52.1916 26.161 51.7327 26.291 51.23C26.4293 50.7262 26.4293 50.1938 26.291 49.69C26.1643 49.2049 25.9115 48.7629 25.5587 48.41C25.1842 48.0413 24.72 47.7791 24.213 47.65C23.7144 47.5107 23.1878 47.5107 22.6892 47.65Z" fill="#303030"/>
<path d="M15.1988 43L15.466 45.75C15.6357 45.8233 15.8009 45.9068 15.9607 46L17.5736 46.94L18.662 45L19.3052 45.37L15.842 51.4L13.5859 50.09C12.9191 49.7515 12.393 49.1844 12.1017 48.49C11.9941 48.1772 11.9578 47.8439 11.9955 47.5149C12.0332 47.1859 12.1439 46.8698 12.3194 46.59C12.5494 46.1518 12.914 45.8008 13.3583 45.59C13.8096 45.4011 14.3088 45.3626 14.7832 45.48L14.4963 42.54L15.1988 43ZM14.0708 46.16C13.8384 46.219 13.6201 46.3247 13.4291 46.4708C13.2381 46.617 13.0782 46.8006 12.959 47.0107C12.8398 47.2207 12.7638 47.4529 12.7355 47.6934C12.7072 47.9338 12.7272 48.1776 12.7943 48.41C13.0263 48.9276 13.4283 49.3481 13.9322 49.6L15.5253 50.53L17.2569 47.53L15.6639 46.6C15.206 46.2533 14.6422 46.0799 14.0708 46.11V46.16Z" fill="#303030"/>
<path d="M9.34109 38.31L9.78636 37.86L13.2001 41.41L8.25265 46.29L4.95764 42.85L5.41281 42.4L8.21307 45.31L9.9051 43.58L7.45116 41L7.92611 40.54L10.4295 43.14L12.27 41.33L9.34109 38.31Z" fill="#303030"/>
<path d="M1.9891 34.38L2.22658 33L2.69164 33.07L2.42447 34.49L3.7405 34L3.89882 34.44L2.563 34.9L3.66134 35.84L3.3447 36.2L2.28594 35.2L2.03857 36.62L1.56362 36.53L1.84067 35.11L0.514757 35.59L0.366333 35.2L1.69225 34.73L0.593916 33.8L0.920448 33.44L1.9891 34.38Z" fill="#303030"/>
</g>
<defs>
<clipPath id="clip0_150_14">
<rect width="68.2056" height="55.46" fill="white" transform="translate(0.0101318)"/>
</clipPath>
</defs>
</svg>
