<svg width="69" height="56" viewBox="0 0 69 56" fill="none" xmlns="http://www.w3.org/2000/svg">
<g clip-path="url(#clip0_150_14)">
<path d="M38.964 16.9075L37.6678 15.9075C37.4652 15.7417 37.206 15.6634 36.9466 15.6897C36.6873 15.7159 36.4486 15.8445 36.2825 16.0475L18.343 36.8675L18.6201 37.1775L23.0629 33.0375C22.9148 32.9773 22.7923 32.8666 22.7166 32.7245C22.641 32.5825 22.6169 32.4182 22.6487 32.2601C22.6804 32.1021 22.766 31.9602 22.8905 31.8593C23.0149 31.7583 23.1705 31.7046 23.3301 31.7075C23.474 31.7075 23.6141 31.7541 23.7298 31.8405C23.8456 31.9269 23.9309 32.0485 23.9732 32.1875L29.831 26.6975C29.9207 26.6245 30.0324 26.5846 30.1476 26.5846C30.2628 26.5846 30.3746 26.6245 30.4643 26.6975L30.7611 26.9175C30.8616 26.9903 30.9853 27.0224 31.108 27.0076C31.2307 26.9928 31.3434 26.9321 31.4241 26.8375L39.0827 18.1575C39.1641 18.0713 39.2262 17.9685 39.2648 17.8559C39.3034 17.7433 39.3175 17.6237 39.3062 17.5051C39.295 17.3865 39.2586 17.2717 39.1995 17.1686C39.1405 17.0655 39.0601 16.9765 38.964 16.9075Z" fill="#303030"/>
<path d="M47.3944 22.7675C43.4686 25.5904 39.0706 27.6739 34.4123 28.9175C29.7888 30.1058 25.0578 30.8161 20.2922 31.0375C20.3882 31.7477 20.5607 32.4452 20.8068 33.1175C23.4982 35.5775 43.763 31.3775 47.7209 26.5175C48.562 25.5075 47.3944 22.7675 47.3944 22.7675ZM23.33 33.0375C23.1969 33.0375 23.0668 32.9976 22.9562 32.9229C22.8455 32.8481 22.7593 32.7419 22.7083 32.6177C22.6574 32.4934 22.6441 32.3567 22.67 32.2248C22.696 32.0929 22.7601 31.9717 22.8542 31.8766C22.9483 31.7815 23.0682 31.7168 23.1987 31.6905C23.3292 31.6643 23.4645 31.6777 23.5875 31.7292C23.7104 31.7807 23.8155 31.8678 23.8894 31.9797C23.9634 32.0915 24.0028 32.223 24.0028 32.3575C24.0042 32.4471 23.9877 32.5362 23.9543 32.6193C23.921 32.7024 23.8715 32.7779 23.8087 32.8413C23.746 32.9047 23.6713 32.9547 23.589 32.9884C23.5068 33.0221 23.4187 33.0388 23.33 33.0375Z" fill="#303030"/>
<path d="M4.18352 21.3274L4.34184 20.6374L6.91452 21.2274C7.12676 21.6236 7.258 22.0589 7.30042 22.5074C7.34952 22.9825 7.31942 23.4624 7.21136 23.9274C7.08328 24.5727 6.78984 25.1727 6.3604 25.6674C5.95183 26.1345 5.42501 26.4802 4.83659 26.6674C4.23012 26.8564 3.58508 26.8805 2.96645 26.7374C2.34645 26.6021 1.77497 26.2977 1.314 25.8574C0.860088 25.4344 0.534146 24.89 0.373982 24.2874C0.196303 23.6328 0.196303 22.942 0.373982 22.2874C0.48033 21.7975 0.671251 21.3304 0.937991 20.9074C1.19045 20.5227 1.52955 20.204 1.92748 19.9774L2.2837 20.5274C1.94263 20.7391 1.64985 21.0214 1.4247 21.3558C1.19956 21.6902 1.04716 22.0691 0.977571 22.4674C0.854861 22.9847 0.865079 23.5252 1.00726 24.0374C1.14021 24.5238 1.40394 24.9634 1.76916 25.3074C2.14456 25.6741 2.61422 25.927 3.12477 26.0374C3.61983 26.1779 4.14362 26.1779 4.63869 26.0374C5.11294 25.8792 5.5389 25.6002 5.87555 25.2274C6.22152 24.8247 6.45994 24.3394 6.56819 23.8174C6.731 23.1842 6.6894 22.515 6.44945 21.9074L4.18352 21.3274Z" fill="#303030"/>
<path d="M9.78387 15.0375L7.47835 18.1475L8.46784 19.9375L8.01268 20.5575L4.35156 13.8075L4.77704 13.2175L12.2279 14.8375L11.7628 15.4575L9.78387 15.0375ZM9.1308 14.8775L5.17284 13.9775L7.15182 17.5675L9.1308 14.8775Z" fill="#303030"/>
<path d="M9.13086 8.58745L9.72455 8.13745L13.4945 13.2375L16.6015 10.8875L16.9775 11.3975L13.2867 14.1875L9.13086 8.58745Z" fill="#303030"/>
<path d="M15.3645 4.41743L16.0275 4.11743L18.6397 9.89743L22.1722 8.27743L22.4295 8.85743L18.234 10.7874L15.3645 4.41743Z" fill="#303030"/>
<path d="M28.406 6.7175L28.5544 7.3475L23.7851 8.4775L22.2019 1.6575L26.8327 0.567505L26.9713 1.1875L23.0133 2.1175L23.5773 4.5375L27.0603 3.7075L27.2087 4.3275L23.7158 5.1475L24.3095 7.6775L28.406 6.7175Z" fill="#303030"/>
<path d="M35.2039 6.96744L33.5515 4.76744C33.3669 4.77776 33.1819 4.77776 32.9974 4.76744L31.1371 4.82744L31.2064 7.04744H30.4742L30.2466 0.0474442L32.8786 0.0374442C33.6228 -0.0320138 34.367 0.170197 34.9763 0.607444C35.2331 0.816438 35.4396 1.08165 35.5802 1.38308C35.7207 1.6845 35.7917 2.01425 35.7877 2.34744C35.8166 2.84163 35.6883 3.33221 35.4216 3.74744C35.1373 4.146 34.7355 4.44351 34.2738 4.59744L36.0054 6.93744L35.2039 6.96744ZM34.5113 3.67744C34.6891 3.51279 34.8271 3.30902 34.9146 3.08187C35.0021 2.85472 35.0368 2.61028 35.0159 2.36744C35.021 2.12332 34.9711 1.88121 34.87 1.65945C34.7688 1.43769 34.6191 1.24209 34.4321 1.08744C33.9761 0.774923 33.4276 0.630182 32.8786 0.677444L30.9986 0.747444L31.1173 4.24744L32.9578 4.18744C33.519 4.20843 34.0694 4.02774 34.5113 3.67744Z" fill="#303030"/>
<path d="M40.4382 5.10748L40.082 7.49748L39.3596 7.38748L39.7257 5.03748L37.6775 0.0374756L38.4493 0.157476L40.2007 4.41748L43.1692 0.887476L43.8618 1.03748L40.4382 5.10748Z" fill="#303030"/>
<path d="M50.2244 4.68753L51.0852 5.81753L50.7092 6.11753L49.8484 4.95753L49.3042 6.26753L48.8886 6.08753L49.4427 4.77753L48.0178 4.96753V4.48753L49.4229 4.32753L48.5521 3.19753L48.938 2.89753L49.7 4.03753L50.2343 2.71753L50.6598 2.89753L50.1551 4.23753L51.58 4.03753V4.52753L50.2244 4.68753Z" fill="#303030"/>
<path d="M53.5292 12.7475C53.2956 12.3834 53.1498 11.969 53.1038 11.5375L53.6876 11.2775C53.7313 11.6739 53.8596 12.056 54.0636 12.3975C54.2846 12.7804 54.573 13.1193 54.9145 13.3975C55.2672 13.7388 55.7173 13.9592 56.2009 14.0275C56.3756 14.0439 56.5516 14.0169 56.7137 13.949C56.8758 13.881 57.019 13.7741 57.131 13.6375C57.2131 13.546 57.2756 13.4384 57.3148 13.3214C57.3539 13.2045 57.3688 13.0806 57.3586 12.9575C57.3258 12.7138 57.2451 12.4792 57.1211 12.2675C56.9351 11.9606 56.7337 11.6635 56.5175 11.3775C56.2541 11.0287 56.016 10.6611 55.8051 10.2775C55.6439 9.99044 55.5555 9.6675 55.5478 9.33751C55.5471 8.96694 55.6849 8.60977 55.9337 8.33751C56.1493 8.07364 56.4339 7.87617 56.755 7.76751C57.1138 7.66278 57.4945 7.66278 57.8533 7.76751C58.3156 7.92029 58.7429 8.16511 59.11 8.48751C59.4146 8.74359 59.6841 9.03952 59.9115 9.36751C60.1217 9.67167 60.2789 10.0099 60.3765 10.3675L59.8125 10.6675C59.7141 10.3342 59.5674 10.0174 59.3771 9.72751C59.1876 9.46866 58.9646 9.2366 58.7142 9.03751C58.3667 8.69776 57.918 8.48334 57.4377 8.42751C57.2612 8.4126 57.0838 8.44226 56.9214 8.51383C56.7591 8.58539 56.6169 8.69662 56.5076 8.83751C56.4234 8.9276 56.3595 9.035 56.3203 9.15237C56.281 9.26973 56.2673 9.39429 56.28 9.51751C56.3032 9.76969 56.3845 10.0129 56.5175 10.2275C56.656 10.4575 56.8539 10.7575 57.1211 11.1175C57.3859 11.4583 57.6241 11.8194 57.8335 12.1975C57.9982 12.4837 58.09 12.8067 58.1007 13.1375C58.1014 13.5081 57.9635 13.8653 57.7148 14.1375C57.4983 14.405 57.2095 14.6031 56.8836 14.7075C56.5255 14.8168 56.1434 14.8168 55.7853 14.7075C55.3198 14.5552 54.8892 14.3104 54.5187 13.9875C54.1193 13.6362 53.7844 13.2164 53.5292 12.7475Z" fill="#303030"/>
<path d="M63.4834 14.2075L62.0882 12.2075L62.6027 11.8375L65.8186 16.4775L65.304 16.8475L63.9089 14.8475L58.7437 18.4975L58.3281 17.8875L63.4834 14.2075Z" fill="#303030"/>
<path d="M61.267 22.4274C61.4436 21.8231 61.7868 21.282 62.2565 20.8674C62.7159 20.4516 63.2756 20.1653 63.8792 20.0374C64.4946 19.8947 65.1363 19.9188 65.7395 20.1074C66.3216 20.3019 66.8435 20.6466 67.2534 21.1074C67.6797 21.603 67.9697 22.203 68.0945 22.8474C68.2584 23.4801 68.2584 24.1448 68.0945 24.7774C67.913 25.3796 67.5706 25.9194 67.105 26.3374C66.6328 26.7645 66.0594 27.0608 65.4403 27.1975C64.8213 27.3341 64.1778 27.3066 63.5725 27.1174C62.9859 26.9324 62.4617 26.5862 62.0586 26.1174C61.6342 25.6244 61.3444 25.0282 61.2175 24.3874C61.0664 23.7407 61.0834 23.0655 61.267 22.4274ZM62.5632 25.6074C62.8936 25.9877 63.3217 26.2681 63.8001 26.4174C64.2932 26.562 64.8143 26.5791 65.3156 26.4673C65.817 26.3555 66.2825 26.1183 66.6696 25.7774C67.0348 25.4378 67.3045 25.0066 67.4513 24.5274C67.5893 24.0215 67.6028 23.4892 67.4907 22.9768C67.3786 22.4644 67.1443 21.9874 66.8081 21.5874C66.4632 21.2054 66.022 20.9254 65.5317 20.7774C65.0324 20.6434 64.5072 20.6434 64.0079 20.7774C63.5041 20.8752 63.0377 21.1143 62.6622 21.4674C62.2936 21.8082 62.0234 22.2437 61.8805 22.7274C61.7461 23.2352 61.7461 23.7697 61.8805 24.2774C61.9888 24.7736 62.2243 25.2322 62.5632 25.6074Z" fill="#303030"/>
<path d="M60.5149 34.0375L63.0777 33.0375C63.0777 32.8575 63.1371 32.6775 63.1865 32.4875L63.6714 30.6775L61.5737 30.1275L61.7617 29.4175L68.4506 31.2275L67.7778 33.7575C67.6262 34.4957 67.2193 35.1552 66.63 35.6175C66.3592 35.8075 66.0486 35.9317 65.7224 35.9803C65.3963 36.0288 65.0634 36.0005 64.7499 35.8975C64.2724 35.7928 63.8445 35.5267 63.5369 35.1431C63.2293 34.7594 63.0603 34.2813 63.0579 33.7875L60.3269 34.7875L60.5149 34.0375ZM63.8297 34.3175C63.9456 34.53 64.1029 34.7166 64.292 34.8662C64.4811 35.0157 64.6982 35.1251 64.9302 35.1877C65.1622 35.2502 65.4043 35.2648 65.642 35.2304C65.8797 35.196 66.108 35.1134 66.3133 34.9875C66.7501 34.633 67.0481 34.1333 67.1544 33.5775L67.6293 31.7775L64.275 30.8675L63.8 32.6675C63.6175 33.2039 63.628 33.7881 63.8297 34.3175Z" fill="#303030"/>
<path d="M56.9626 40.4775L56.458 40.0875L59.4265 36.1375L64.9478 40.3675L62.0783 44.1975L61.5737 43.8075L63.9979 40.5775L62.0189 39.0675L59.852 41.9575L59.3572 41.5775L61.5737 38.6875L59.5254 37.1175L56.9626 40.4775Z" fill="#303030"/>
<path d="M54.6474 48.4475L53.2324 48.5275V48.0475L54.6474 48.0375L53.8855 46.8475L54.2714 46.5975L55.0234 47.7975L55.6369 46.4575L56.0624 46.6875L55.3895 47.9475L56.8045 47.8675V48.3575H55.3697L56.1316 49.5475L55.7457 49.7975L54.9937 48.5975L54.3407 49.8975L53.9251 49.6575L54.6474 48.4475Z" fill="#303030"/>
<path d="M41.7839 47.6475L42.9812 48.3175C43.1819 47.9278 43.462 47.5855 43.8031 47.3132C44.1442 47.0409 44.5386 46.8447 44.9601 46.7375C45.3534 46.6136 45.767 46.5694 46.1772 46.6075C46.5331 46.6351 46.875 46.7595 47.1667 46.9675C47.4304 47.1684 47.6243 47.4484 47.7208 47.7675C47.8401 48.1623 47.8191 48.5867 47.6615 48.9675C47.4132 49.4849 47.0784 49.9551 46.672 50.3575C46.9982 50.5347 47.3008 50.7531 47.5724 51.0075C47.759 51.2024 47.8979 51.4387 47.9781 51.6975C48.0288 51.8993 48.0319 52.1102 47.9873 52.3135C47.9426 52.5167 47.8513 52.7064 47.7208 52.8675C47.4567 53.2522 47.0625 53.526 46.6126 53.6375C46.2175 53.7898 45.7807 53.7898 45.3856 53.6375C45.2099 53.5611 45.0542 53.4446 44.9305 53.2971C44.8069 53.1497 44.7188 52.9752 44.6732 52.7875C44.5694 52.4574 44.5942 52.0998 44.7425 51.7875C44.9696 51.3329 45.2668 50.9177 45.6231 50.5575L43.2384 49.2175C43.1474 49.6884 43.1274 50.1705 43.1791 50.6475H42.5755C42.5348 50.0601 42.6019 49.4702 42.7734 48.9075L41.5266 48.2075L41.7839 47.6475ZM43.5056 48.6475L46.1277 50.1175C46.4714 49.7858 46.7559 49.3968 46.9688 48.9675C47.0775 48.6776 47.0775 48.3574 46.9688 48.0675C46.9239 47.8943 46.8371 47.735 46.7162 47.6041C46.5953 47.4732 46.4441 47.3747 46.2762 47.3175C45.8654 47.1773 45.4204 47.1773 45.0096 47.3175C44.6739 47.407 44.3618 47.5698 44.0951 47.7944C43.8284 48.019 43.6136 48.3 43.466 48.6175L43.5056 48.6475ZM47.2261 52.6475C47.2907 52.537 47.3312 52.4138 47.3449 52.2862C47.3586 52.1585 47.345 52.0294 47.3052 51.9075C47.2446 51.71 47.1357 51.5312 46.9886 51.3875C46.7367 51.1728 46.4611 50.9882 46.1673 50.8375C45.8673 51.1373 45.6048 51.4732 45.3856 51.8375C45.266 52.0647 45.2377 52.3297 45.3065 52.5775C45.3378 52.6919 45.3929 52.7983 45.4679 52.8897C45.543 52.981 45.6363 53.0553 45.7418 53.1075C45.9938 53.2035 46.2716 53.2035 46.5235 53.1075C46.7926 53.035 47.0274 52.8685 47.1865 52.6375L47.2261 52.6475Z" fill="#303030"/>
<path d="M29.7222 55.3574L29.8607 48.3574H30.5632L30.4544 53.9574L33.2645 49.2974H33.6109L36.2429 54.0374L36.3419 48.4674H37.0444L36.9158 55.4674H36.3122L33.4031 50.2374L30.3258 55.3674L29.7222 55.3574Z" fill="#303030"/>
<path d="M26.2786 48.0374C26.7311 48.4733 27.0549 49.0276 27.2139 49.6385C27.3728 50.2495 27.3608 50.893 27.179 51.4974C27.0164 52.1163 26.6917 52.6794 26.239 53.1274C25.7991 53.5645 25.2475 53.8692 24.6459 54.0074C24.0114 54.1521 23.3508 54.1315 22.7263 53.9474C22.1039 53.7938 21.5313 53.4804 21.064 53.0374C20.6182 52.6072 20.2996 52.0601 20.1437 51.4574C19.9916 50.8344 20.0028 50.1821 20.1763 49.5648C20.3499 48.9475 20.6797 48.3866 21.1332 47.9374C21.5654 47.5016 22.1052 47.1908 22.6966 47.0374C23.3279 46.8932 23.9852 46.9138 24.6064 47.0974C25.2352 47.2585 25.8115 47.5825 26.2786 48.0374ZM22.9044 47.6874C22.4204 47.8013 21.978 48.0509 21.628 48.4074C21.2635 48.7743 21.0037 49.2338 20.876 49.7374C20.738 50.2379 20.738 50.767 20.876 51.2674C20.9927 51.7543 21.2431 52.198 21.5983 52.5474C21.9709 52.9157 22.4309 53.1808 22.9341 53.3174C23.4373 53.447 23.9646 53.447 24.4678 53.3174C24.9522 53.1971 25.3962 52.9486 25.7542 52.5974C26.1167 52.2291 26.3762 51.7701 26.5062 51.2674C26.6445 50.7636 26.6445 50.2313 26.5062 49.7274C26.3795 49.2424 26.1267 48.8004 25.774 48.4474C25.3994 48.0788 24.9352 47.8166 24.4282 47.6874C23.9297 47.5482 23.403 47.5482 22.9044 47.6874Z" fill="#303030"/>
<path d="M15.414 43.0375L15.6812 45.7875C15.8509 45.8608 16.0161 45.9442 16.1759 46.0375L17.7888 46.9775L18.8772 45.0375L19.5204 45.4075L16.0572 51.4375L13.8011 50.1275C13.1343 49.7889 12.6082 49.2218 12.3169 48.5275C12.2093 48.2147 12.173 47.8813 12.2107 47.5524C12.2484 47.2234 12.3591 46.9072 12.5346 46.6275C12.7646 46.1892 13.1292 45.8383 13.5735 45.6275C14.0248 45.4386 14.524 45.4 14.9984 45.5175L14.7115 42.5775L15.414 43.0375ZM14.286 46.1975C14.0536 46.2564 13.8353 46.3621 13.6443 46.5083C13.4533 46.6545 13.2934 46.8381 13.1742 47.0481C13.055 47.2582 12.979 47.4904 12.9507 47.7309C12.9224 47.9713 12.9424 48.2151 13.0095 48.4475C13.2415 48.9651 13.6435 49.3856 14.1475 49.6375L15.7405 50.5675L17.4721 47.5675L15.8791 46.6375C15.4212 46.2908 14.8574 46.1173 14.286 46.1475V46.1975Z" fill="#303030"/>
<path d="M9.5563 38.3475L10.0016 37.8975L13.4153 41.4475L8.46786 46.3275L5.17285 42.8875L5.62802 42.4375L8.42828 45.3475L10.1203 43.6175L7.66637 41.0375L8.14132 40.5775L10.6447 43.1775L12.4852 41.3675L9.5563 38.3475Z" fill="#303030"/>
<path d="M2.20431 34.4175L2.44179 33.0375L2.90685 33.1075L2.63968 34.5275L3.95571 34.0375L4.11403 34.4775L2.77821 34.9375L3.87655 35.8775L3.55991 36.2375L2.50115 35.2375L2.25378 36.6575L1.77883 36.5675L2.05588 35.1475L0.729967 35.6275L0.581543 35.2375L1.90746 34.7675L0.809126 33.8375L1.13566 33.4775L2.20431 34.4175Z" fill="#303030"/>
</g>
<defs>
<clipPath id="clip0_150_14">
<rect width="68.2056" height="55.46" fill="white" transform="translate(0.225342 0.0374756)"/>
</clipPath>
</defs>
</svg>
