<svg xmlns="http://www.w3.org/2000/svg" aria-hidden="true" style="position:absolute;width:0;height:0;overflow:hidden">
  <defs>
  <!-- socials icons -->
    <symbol id="facebook" viewBox="0 0 32 32">
      <path d="M20.329 6.141h2.782V1.295c-.48-.066-2.131-.215-4.053-.215-4.011 0-6.759 2.523-6.759 7.161v4.268H7.872v5.417h4.427v13.63h5.427V17.927h4.248l.674-5.417h-4.923V8.778c.001-1.566.423-2.637 2.604-2.637z"/>
    </symbol>
    <symbol id="instagram" viewBox="0 0 32 32">
      <path d="M30.462 10.041c-.071-1.619-.333-2.733-.708-3.697a7.436 7.436 0 0 0-1.762-2.703 7.5 7.5 0 0 0-2.697-1.756c-.97-.375-2.078-.637-3.697-.708-1.631-.077-2.149-.095-6.287-.095s-4.656.018-6.281.089c-1.619.071-2.733.334-3.697.708A7.436 7.436 0 0 0 2.63 3.641 7.5 7.5 0 0 0 .874 6.338c-.375.97-.637 2.078-.708 3.697-.077 1.631-.095 2.149-.095 6.287s.018 4.656.089 6.281c.071 1.619.334 2.733.709 3.697a7.514 7.514 0 0 0 1.762 2.703 7.5 7.5 0 0 0 2.697 1.756c.97.375 2.078.637 3.697.708 1.625.072 2.143.089 6.281.089s4.656-.018 6.281-.089c1.619-.071 2.733-.333 3.697-.708a7.793 7.793 0 0 0 4.459-4.459c.375-.971.637-2.078.708-3.697.071-1.625.089-2.143.089-6.281s-.006-4.656-.077-6.281zm-2.745 12.443c-.066 1.488-.316 2.292-.524 2.828a5.053 5.053 0 0 1-2.894 2.893c-.536.208-1.345.458-2.828.524-1.607.072-2.09.089-6.156.089s-4.554-.018-6.156-.089c-1.488-.065-2.292-.315-2.828-.524a4.683 4.683 0 0 1-1.75-1.137 4.74 4.74 0 0 1-1.137-1.75c-.208-.536-.458-1.346-.524-2.828-.072-1.607-.089-2.09-.089-6.156s.018-4.555.089-6.156c.065-1.488.315-2.292.524-2.828A4.625 4.625 0 0 1 4.587 5.6a4.731 4.731 0 0 1 1.75-1.137c.536-.208 1.346-.458 2.828-.524 1.607-.071 2.09-.089 6.156-.089 4.072 0 4.555.018 6.156.089 1.488.066 2.292.316 2.828.524a4.683 4.683 0 0 1 1.75 1.137 4.74 4.74 0 0 1 1.137 1.75c.208.536.458 1.345.524 2.828.071 1.607.089 2.09.089 6.156s-.018 4.542-.089 6.15z"/>
      <path d="M15.31 8.493c-4.322 0-7.829 3.507-7.829 7.829s3.507 7.829 7.829 7.829c4.322 0 7.829-3.507 7.829-7.829s-3.507-7.829-7.829-7.829zm0 12.907a5.079 5.079 0 1 1 .001-10.157A5.079 5.079 0 0 1 15.31 21.4zm9.966-13.217a1.828 1.828 0 1 1-3.656 0 1.828 1.828 0 0 1 3.656 0z"/>
    </symbol>
    <symbol id="linkedin" viewBox="0 0 32 32">
      <path d="M30.484 31.557v-.001h.008V20.379c0-5.468-1.177-9.68-7.57-9.68-3.073 0-5.135 1.686-5.977 3.285h-.089v-2.775h-6.061v20.347h6.311V21.481c0-2.653.503-5.218 3.788-5.218 3.237 0 3.285 3.027 3.285 5.388v9.906h6.305zM.518 11.21h6.319v20.347H.518V11.21zM3.675 1.081c-2.02 0-3.66 1.639-3.66 3.66s1.639 3.694 3.66 3.694c2.02 0 3.66-1.674 3.66-3.694a3.663 3.663 0 0 0-3.66-3.66z"/>
    </symbol>
    <symbol id="twitter" viewBox="0 0 32 32">
      <path d="M30.492 6.869a13.03 13.03 0 0 1-3.6.987 6.216 6.216 0 0 0 2.749-3.453 12.47 12.47 0 0 1-3.962 1.512 6.247 6.247 0 0 0-10.808 4.273c0 .495.042.971.145 1.425-5.194-.253-9.79-2.743-12.878-6.535a6.29 6.29 0 0 0-.855 3.158 6.255 6.255 0 0 0 2.775 5.192 6.157 6.157 0 0 1-2.823-.77v.069c0 3.036 2.166 5.558 5.006 6.139a6.24 6.24 0 0 1-1.638.206c-.4 0-.804-.023-1.183-.107.81 2.474 3.107 4.293 5.838 4.352a12.555 12.555 0 0 1-7.747 2.665c-.512 0-1.004-.023-1.495-.086A17.59 17.59 0 0 0 9.601 28.7c11.497 0 17.783-9.524 17.783-17.779 0-.276-.009-.543-.023-.808a12.451 12.451 0 0 0 3.131-3.244z"/>
    </symbol>
    <symbol id="pinterest" viewBox="0 0 32 32">
    <path d="M16 2.138c-7.656 0-13.863 6.206-13.863 13.863 0 5.875 3.656 10.887 8.813 12.906-0.119-1.094-0.231-2.781 0.050-3.975 0.25-1.081 1.625-6.887 1.625-6.887s-0.412-0.831-0.412-2.056c0-1.925 1.119-3.369 2.506-3.369 1.181 0 1.756 0.887 1.756 1.95 0 1.188-0.756 2.969-1.15 4.613-0.331 1.381 0.688 2.506 2.050 2.506 2.462 0 4.356-2.6 4.356-6.35 0-3.319-2.387-5.638-5.787-5.638-3.944 0-6.256 2.956-6.256 6.019 0 1.194 0.456 2.469 1.031 3.163 0.113 0.137 0.131 0.256 0.094 0.4-0.106 0.438-0.338 1.381-0.387 1.575-0.063 0.256-0.2 0.306-0.463 0.188-1.731-0.806-2.813-3.337-2.813-5.369 0-4.375 3.175-8.387 9.156-8.387 4.806 0 8.544 3.425 8.544 8.006 0 4.775-3.012 8.625-7.194 8.625-1.406 0-2.725-0.731-3.175-1.594 0 0-0.694 2.644-0.863 3.294-0.313 1.206-1.156 2.712-1.725 3.631 1.3 0.4 2.675 0.619 4.106 0.619 7.656 0 13.863-6.206 13.863-13.863 0-7.662-6.206-13.869-13.863-13.869z"></path>
    </symbol>
    <symbol id="pinterest2" viewBox="0 0 32 32">
    <path d="M16 0c-8.825 0-16 7.175-16 16s7.175 16 16 16 16-7.175 16-16-7.175-16-16-16zM16 29.863c-1.431 0-2.806-0.219-4.106-0.619 0.563-0.919 1.412-2.431 1.725-3.631 0.169-0.65 0.863-3.294 0.863-3.294 0.45 0.863 1.775 1.594 3.175 1.594 4.181 0 7.194-3.844 7.194-8.625 0-4.581-3.738-8.006-8.544-8.006-5.981 0-9.156 4.019-9.156 8.387 0 2.031 1.081 4.563 2.813 5.369 0.262 0.125 0.4 0.069 0.463-0.188 0.044-0.194 0.281-1.131 0.387-1.575 0.031-0.137 0.019-0.262-0.094-0.4-0.575-0.694-1.031-1.975-1.031-3.162 0-3.056 2.313-6.019 6.256-6.019 3.406 0 5.788 2.319 5.788 5.637 0 3.75-1.894 6.35-4.356 6.35-1.363 0-2.381-1.125-2.050-2.506 0.394-1.65 1.15-3.425 1.15-4.613 0-1.063-0.569-1.95-1.756-1.95-1.394 0-2.506 1.438-2.506 3.369 0 1.225 0.412 2.056 0.412 2.056s-1.375 5.806-1.625 6.887c-0.281 1.2-0.169 2.881-0.050 3.975-5.156-2.012-8.813-7.025-8.813-12.9 0-7.656 6.206-13.863 13.862-13.863s13.863 6.206 13.863 13.863c0 7.656-6.206 13.863-13.863 13.863z"></path>
    </symbol>
    

  <!-- contacts icons -->
    <symbol id="mail" viewBox="0 0 32 32">
      <path stroke-linecap="round" stroke-linejoin="round" stroke-width="1.28" d="M6.157 7.308h18.432c1.267 0 2.304 1.008 2.304 2.24v13.44c0 1.232-1.037 2.24-2.304 2.24H6.157c-1.267 0-2.304-1.008-2.304-2.24V9.548c0-1.232 1.037-2.24 2.304-2.24z"/>
      <path stroke-linecap="round" stroke-linejoin="round" stroke-width="1.28" d="m25.613 9.868-10.24 7.68-10.24-7.68"/>
    </symbol>
    <symbol id="map" viewBox="0 0 32 32">
      <path stroke-linecap="round" stroke-linejoin="round" stroke-width="1.28" d="M25.613 14.173c0 7.331-10.24 13.614-10.24 13.614s-10.24-6.284-10.24-13.614c0-5.206 4.585-9.425 10.24-9.425s10.24 4.22 10.24 9.425z"/>
      <path stroke-linecap="round" stroke-linejoin="round" stroke-width="1.28" d="M15.373 18.828a3.84 3.84 0 1 0 0-7.68 3.84 3.84 0 0 0 0 7.68z"/>
    </symbol>
    <symbol id="phone" viewBox="0 0 32 32">
      <path stroke-linecap="round" stroke-linejoin="round" stroke-width="1.28" d="M25.613 21.392v3.089a2.062 2.062 0 0 1-2.245 2.06 20.38 20.38 0 0 1-8.887-3.161 20.078 20.078 0 0 1-6.178-6.178 20.38 20.38 0 0 1-3.161-8.928 2.059 2.059 0 0 1 2.049-2.245h3.089A2.059 2.059 0 0 1 12.339 7.8c.13.989.372 1.959.721 2.894a2.06 2.06 0 0 1-.463 2.173l-1.308 1.308a16.475 16.475 0 0 0 6.178 6.178l1.308-1.308a2.06 2.06 0 0 1 2.173-.463c.934.349 1.905.59 2.894.721a2.06 2.06 0 0 1 1.771 2.09z"/>
    </symbol>
    
    
  </defs>
</svg>
